{
	"asset":{
		"generator":"Khronos glTF Blender I/O v3.6.27",
		"version":"2.0"
	},
	"scene":0,
	"scenes":[
		{
			"name":"Scene",
			"nodes":[
				13
			]
		}
	],
	"nodes":[
		{
			"name":"fairy_reference_001"
		},
		{
			"name":"Object_6",
			"rotation":[
				-0.70710688829422,
				0,
				0,
				0.7071066498756409
			]
		},
		{
			"name":"fairy_wings_R_02",
			"rotation":[
				-0.6837968230247498,
				4.886743809606742e-08,
				5.9294361420825226e-08,
				0.7296725511550903
			],
			"scale":[
				1,
				0.9999998807907104,
				0.9999999403953552
			],
			"translation":[
				2.457449909343268e-06,
				-2.171128273010254,
				-0.14108099043369293
			]
		},
		{
			"name":"fairy_wings_L_03",
			"rotation":[
				-0.6837968230247498,
				4.886748072863156e-08,
				5.9294336551829474e-08,
				0.7296725511550903
			],
			"scale":[
				1,
				0.9999998807907104,
				0.9999999403953552
			],
			"translation":[
				1.5670584616600536e-06,
				2.174058198928833,
				0.14127595722675323
			]
		},
		{
			"children":[
				2,
				3
			],
			"name":"fairy_root_01",
			"rotation":[
				-0.5159565806388855,
				-0.48351719975471497,
				-0.5159565806388855,
				0.48351699113845825
			],
			"scale":[
				0.9999998807907104,
				0.9999998807907104,
				1
			],
			"translation":[
				-0.0014689997769892216,
				-1.9073484054388246e-06,
				-3.090860900556436e-13
			]
		},
		{
			"children":[
				4
			],
			"name":"fairy_qc_skeleton_00",
			"translation":[
				0,
				-1.9073484054388246e-06,
				-3.090860900556436e-13
			]
		},
		{
			"children":[
				5
			],
			"name":"_rootJoint",
			"rotation":[
				-0.7071067690849304,
				0,
				0,
				0.7071067690849304
			],
			"translation":[
				0,
				-3.090860900556436e-13,
				1.9073484054388246e-06
			]
		},
		{
			"mesh":0,
			"name":"Object_7",
			"skin":0
		},
		{
			"mesh":1,
			"name":"Object_8",
			"skin":0
		},
		{
			"children":[
				0,
				1,
				7,
				8,
				6
			],
			"name":"Object_4"
		},
		{
			"children":[
				9
			],
			"name":"RootNode"
		},
		{
			"children":[
				10
			],
			"name":"Object_2"
		},
		{
			"children":[
				11
			],
			"name":"Navi.fbx",
			"rotation":[
				0.70710688829422,
				0,
				0,
				0.7071066498756409
			],
			"translation":[
				0,
				-2.0304439658502815e-06,
				0
			]
		},
		{
			"children":[
				12
			],
			"name":"Sketchfab_model",
			"rotation":[
				-0.70710688829422,
				0,
				0,
				0.7071066498756409
			],
			"scale":[
				0.08753114193677902,
				0.08753114938735962,
				0.08753114938735962
			],
			"translation":[
				5.8328336308477446e-05,
				-2.4049785137176514,
				2.653733730316162
			]
		}
	],
	"animations":[
		{
			"channels":[
				{
					"sampler":0,
					"target":{
						"node":6,
						"path":"translation"
					}
				},
				{
					"sampler":1,
					"target":{
						"node":6,
						"path":"rotation"
					}
				},
				{
					"sampler":2,
					"target":{
						"node":6,
						"path":"scale"
					}
				},
				{
					"sampler":3,
					"target":{
						"node":5,
						"path":"translation"
					}
				},
				{
					"sampler":4,
					"target":{
						"node":5,
						"path":"rotation"
					}
				},
				{
					"sampler":5,
					"target":{
						"node":5,
						"path":"scale"
					}
				},
				{
					"sampler":6,
					"target":{
						"node":4,
						"path":"translation"
					}
				},
				{
					"sampler":7,
					"target":{
						"node":4,
						"path":"rotation"
					}
				},
				{
					"sampler":8,
					"target":{
						"node":4,
						"path":"scale"
					}
				},
				{
					"sampler":9,
					"target":{
						"node":2,
						"path":"translation"
					}
				},
				{
					"sampler":10,
					"target":{
						"node":2,
						"path":"rotation"
					}
				},
				{
					"sampler":11,
					"target":{
						"node":2,
						"path":"scale"
					}
				},
				{
					"sampler":12,
					"target":{
						"node":3,
						"path":"translation"
					}
				},
				{
					"sampler":13,
					"target":{
						"node":3,
						"path":"rotation"
					}
				},
				{
					"sampler":14,
					"target":{
						"node":3,
						"path":"scale"
					}
				}
			],
			"name":"idle",
			"samplers":[
				{
					"input":13,
					"interpolation":"STEP",
					"output":14
				},
				{
					"input":13,
					"interpolation":"STEP",
					"output":15
				},
				{
					"input":13,
					"interpolation":"STEP",
					"output":16
				},
				{
					"input":13,
					"interpolation":"STEP",
					"output":17
				},
				{
					"input":13,
					"interpolation":"STEP",
					"output":18
				},
				{
					"input":13,
					"interpolation":"STEP",
					"output":19
				},
				{
					"input":20,
					"interpolation":"LINEAR",
					"output":21
				},
				{
					"input":13,
					"interpolation":"STEP",
					"output":22
				},
				{
					"input":13,
					"interpolation":"STEP",
					"output":23
				},
				{
					"input":13,
					"interpolation":"LINEAR",
					"output":24
				},
				{
					"input":20,
					"interpolation":"LINEAR",
					"output":25
				},
				{
					"input":13,
					"interpolation":"STEP",
					"output":26
				},
				{
					"input":13,
					"interpolation":"LINEAR",
					"output":27
				},
				{
					"input":20,
					"interpolation":"LINEAR",
					"output":28
				},
				{
					"input":13,
					"interpolation":"STEP",
					"output":29
				}
			]
		}
	],
	"meshes":[
		{
			"name":"fairy_reference_001_fairy_wings_0",
			"primitives":[
				{
					"attributes":{
						"POSITION":0,
						"NORMAL":1,
						"TEXCOORD_0":2,
						"JOINTS_0":3,
						"WEIGHTS_0":4
					},
					"indices":5
				}
			]
		},
		{
			"name":"fairy_reference_001_fairy_navi_0",
			"primitives":[
				{
					"attributes":{
						"POSITION":7,
						"NORMAL":8,
						"TEXCOORD_0":9,
						"JOINTS_0":10,
						"WEIGHTS_0":11
					},
					"indices":12
				}
			]
		}
	],
	"skins":[
		{
			"inverseBindMatrices":6,
			"joints":[
				6,
				5,
				4,
				2,
				3
			],
			"name":"Object_4"
		}
	],
	"accessors":[
		{
			"bufferView":0,
			"componentType":5126,
			"count":320,
			"max":[
				0.9084668755531311,
				-1.60275399684906,
				2.658259153366089
			],
			"min":[
				-0.9083495736122131,
				-2.836289405822754,
				2.236093044281006
			],
			"type":"VEC3"
		},
		{
			"bufferView":1,
			"componentType":5126,
			"count":320,
			"type":"VEC3"
		},
		{
			"bufferView":2,
			"componentType":5126,
			"count":320,
			"type":"VEC2"
		},
		{
			"bufferView":3,
			"componentType":5121,
			"count":320,
			"type":"VEC4"
		},
		{
			"bufferView":4,
			"componentType":5126,
			"count":320,
			"type":"VEC4"
		},
		{
			"bufferView":5,
			"componentType":5123,
			"count":1248,
			"type":"SCALAR"
		},
		{
			"bufferView":6,
			"componentType":5126,
			"count":5,
			"type":"MAT4"
		},
		{
			"bufferView":7,
			"componentType":5126,
			"count":473,
			"max":[
				0.27831944823265076,
				-2.1267173290252686,
				2.9321491718292236
			],
			"min":[
				-0.2782028019428253,
				-2.683239698410034,
				2.375627040863037
			],
			"type":"VEC3"
		},
		{
			"bufferView":8,
			"componentType":5126,
			"count":473,
			"type":"VEC3"
		},
		{
			"bufferView":9,
			"componentType":5126,
			"count":473,
			"type":"VEC2"
		},
		{
			"bufferView":10,
			"componentType":5121,
			"count":473,
			"type":"VEC4"
		},
		{
			"bufferView":11,
			"componentType":5126,
			"count":473,
			"type":"VEC4"
		},
		{
			"bufferView":12,
			"componentType":5123,
			"count":2688,
			"type":"SCALAR"
		},
		{
			"bufferView":13,
			"componentType":5126,
			"count":2,
			"max":[
				1.2916666666666667
			],
			"min":[
				0
			],
			"type":"SCALAR"
		},
		{
			"bufferView":14,
			"componentType":5126,
			"count":2,
			"type":"VEC3"
		},
		{
			"bufferView":15,
			"componentType":5126,
			"count":2,
			"type":"VEC4"
		},
		{
			"bufferView":16,
			"componentType":5126,
			"count":2,
			"type":"VEC3"
		},
		{
			"bufferView":17,
			"componentType":5126,
			"count":2,
			"type":"VEC3"
		},
		{
			"bufferView":18,
			"componentType":5126,
			"count":2,
			"type":"VEC4"
		},
		{
			"bufferView":19,
			"componentType":5126,
			"count":2,
			"type":"VEC3"
		},
		{
			"bufferView":20,
			"componentType":5126,
			"count":32,
			"max":[
				1.2916666666666667
			],
			"min":[
				0
			],
			"type":"SCALAR"
		},
		{
			"bufferView":21,
			"componentType":5126,
			"count":32,
			"type":"VEC3"
		},
		{
			"bufferView":22,
			"componentType":5126,
			"count":2,
			"type":"VEC4"
		},
		{
			"bufferView":23,
			"componentType":5126,
			"count":2,
			"type":"VEC3"
		},
		{
			"bufferView":24,
			"componentType":5126,
			"count":2,
			"type":"VEC3"
		},
		{
			"bufferView":25,
			"componentType":5126,
			"count":32,
			"type":"VEC4"
		},
		{
			"bufferView":26,
			"componentType":5126,
			"count":2,
			"type":"VEC3"
		},
		{
			"bufferView":27,
			"componentType":5126,
			"count":2,
			"type":"VEC3"
		},
		{
			"bufferView":28,
			"componentType":5126,
			"count":32,
			"type":"VEC4"
		},
		{
			"bufferView":29,
			"componentType":5126,
			"count":2,
			"type":"VEC3"
		}
	],
	"bufferViews":[
		{
			"buffer":0,
			"byteLength":3840,
			"byteOffset":0,
			"target":34962
		},
		{
			"buffer":0,
			"byteLength":3840,
			"byteOffset":3840,
			"target":34962
		},
		{
			"buffer":0,
			"byteLength":2560,
			"byteOffset":7680,
			"target":34962
		},
		{
			"buffer":0,
			"byteLength":1280,
			"byteOffset":10240,
			"target":34962
		},
		{
			"buffer":0,
			"byteLength":5120,
			"byteOffset":11520,
			"target":34962
		},
		{
			"buffer":0,
			"byteLength":2496,
			"byteOffset":16640,
			"target":34963
		},
		{
			"buffer":0,
			"byteLength":320,
			"byteOffset":19136
		},
		{
			"buffer":0,
			"byteLength":5676,
			"byteOffset":19456,
			"target":34962
		},
		{
			"buffer":0,
			"byteLength":5676,
			"byteOffset":25132,
			"target":34962
		},
		{
			"buffer":0,
			"byteLength":3784,
			"byteOffset":30808,
			"target":34962
		},
		{
			"buffer":0,
			"byteLength":1892,
			"byteOffset":34592,
			"target":34962
		},
		{
			"buffer":0,
			"byteLength":7568,
			"byteOffset":36484,
			"target":34962
		},
		{
			"buffer":0,
			"byteLength":5376,
			"byteOffset":44052,
			"target":34963
		},
		{
			"buffer":0,
			"byteLength":8,
			"byteOffset":49428
		},
		{
			"buffer":0,
			"byteLength":24,
			"byteOffset":49436
		},
		{
			"buffer":0,
			"byteLength":32,
			"byteOffset":49460
		},
		{
			"buffer":0,
			"byteLength":24,
			"byteOffset":49492
		},
		{
			"buffer":0,
			"byteLength":24,
			"byteOffset":49516
		},
		{
			"buffer":0,
			"byteLength":32,
			"byteOffset":49540
		},
		{
			"buffer":0,
			"byteLength":24,
			"byteOffset":49572
		},
		{
			"buffer":0,
			"byteLength":128,
			"byteOffset":49596
		},
		{
			"buffer":0,
			"byteLength":384,
			"byteOffset":49724
		},
		{
			"buffer":0,
			"byteLength":32,
			"byteOffset":50108
		},
		{
			"buffer":0,
			"byteLength":24,
			"byteOffset":50140
		},
		{
			"buffer":0,
			"byteLength":24,
			"byteOffset":50164
		},
		{
			"buffer":0,
			"byteLength":512,
			"byteOffset":50188
		},
		{
			"buffer":0,
			"byteLength":24,
			"byteOffset":50700
		},
		{
			"buffer":0,
			"byteLength":24,
			"byteOffset":50724
		},
		{
			"buffer":0,
			"byteLength":512,
			"byteOffset":50748
		},
		{
			"buffer":0,
			"byteLength":24,
			"byteOffset":51260
		}
	],
	"buffers":[
		{
			"byteLength":51284,
			"uri":"untitled.bin"
		}
	]
}
